<?xml version="1.0" encoding="UTF-8" standalone="no"?>
<!-- Created with Inkscape (http://www.inkscape.org/) -->

<svg
   width="125.12278mm"
   height="134.22263mm"
   viewBox="0 0 125.12278 134.22263"
   version="1.1"
   id="svg1"
   xml:space="preserve"
   inkscape:version="1.4.2 (ebf0e940d0, 2025-05-08)"
   sodipodi:docname="logo.svg"
   xmlns:inkscape="http://www.inkscape.org/namespaces/inkscape"
   xmlns:sodipodi="http://sodipodi.sourceforge.net/DTD/sodipodi-0.dtd"
   xmlns="http://www.w3.org/2000/svg"
   xmlns:svg="http://www.w3.org/2000/svg"><sodipodi:namedview
     id="namedview1"
     pagecolor="#ffffff"
     bordercolor="#000000"
     borderopacity="0.25"
     inkscape:showpageshadow="2"
     inkscape:pageopacity="0.0"
     inkscape:pagecheckerboard="0"
     inkscape:deskcolor="#d1d1d1"
     inkscape:document-units="mm"
     inkscape:zoom="1.0092656"
     inkscape:cx="417.13501"
     inkscape:cy="374.03436"
     inkscape:window-width="1920"
     inkscape:window-height="1008"
     inkscape:window-x="0"
     inkscape:window-y="0"
     inkscape:window-maximized="1"
     inkscape:current-layer="layer1" /><defs
     id="defs1" /><g
     inkscape:label="Ebene 1"
     inkscape:groupmode="layer"
     id="layer1"
     transform="translate(-0.34883479,-0.24011958)"><g
       id="g2"
       transform="translate(-36.973481,-38.022094)"><path
         style="fill:#77bfd6"
         d="m 99.078372,172.36336 c -0.436562,-0.12191 -0.972344,-0.36909 -1.190625,-0.54929 -1.195671,-0.98705 -1.184343,-0.89674 -1.322917,-10.54737 l -0.132291,-9.21316 -5.920534,5.55265 c -3.256294,3.05395 -6.209554,5.62518 -6.5628,5.71384 -2.097693,0.52649 -4.044883,-0.86129 -4.253407,-3.03144 -0.122635,-1.27629 -0.08307,-1.37245 1.07318,-2.60858 0.66028,-0.70589 4.483466,-4.37713 8.495968,-8.1583 l 7.29546,-6.87485 0.0022,-1.91823 0.0022,-1.91823 h -0.776452 c -1.137611,0 -4.274678,-0.69991 -6.529254,-1.45675 -2.522719,-0.84685 -5.781825,-2.48805 -8.302608,-4.18099 -1.921922,-1.29074 -5.977857,-5.10793 -7.562631,-7.11747 l -0.773845,-0.98126 -4.232977,2.5243 c -2.328137,1.38837 -4.282378,2.57371 -4.342758,2.63409 -0.06038,0.0604 -0.901188,4.84288 -1.868462,10.62779 -0.967275,5.7849 -1.899547,10.77666 -2.071715,11.09279 -0.928521,1.70496 -3.163169,2.19847 -4.841314,1.06918 -1.668839,-1.12302 -1.676712,-1.51218 -0.207129,-10.23742 0.719293,-4.27061 1.274593,-7.85844 1.233998,-7.97297 -0.04059,-0.11453 -1.740684,0.75482 -3.777975,1.93188 -7.460928,4.31063 -9.661016,5.53524 -10.419339,5.79959 -1.089984,0.37998 -2.65405,-0.0958 -3.616179,-1.10008 -0.652971,-0.68155 -0.781148,-1.03313 -0.781148,-2.14259 0,-1.67797 0.471151,-2.12995 4.638726,-4.45 1.668805,-0.929 4.851839,-2.72285 7.07341,-3.98631 l 4.03922,-2.29722 -7.165096,-2.58857 c -7.744928,-2.79805 -8.534658,-3.2489 -8.875753,-5.06709 -0.34164,-1.8211 1.309733,-3.79335 3.17819,-3.79574 0.633993,-8.1e-4 11.694236,3.84577 18.649984,6.48618 l 1.694932,0.6434 3.861318,-2.24087 c 2.123724,-1.23248 4.019495,-2.34365 4.212824,-2.46926 0.282618,-0.18363 0.199009,-0.66357 -0.426616,-2.44889 -1.399387,-3.99338 -1.776006,-6.47905 -1.759591,-11.61321 0.01214,-3.79672 0.11966,-5.08268 0.597302,-7.143754 0.684029,-2.95166 1.083194,-2.366405 -3.454668,-5.065225 L 60.854657,91.41754 51.6561,94.91618 c -10.749215,4.088427 -11.600327,4.272057 -13.163011,2.839965 -1.836379,-1.682916 -1.465674,-4.161655 0.783673,-5.240068 0.585262,-0.280594 3.564425,-1.453842 6.620363,-2.607219 3.055937,-1.153376 5.957738,-2.263232 6.448447,-2.466346 l 0.892197,-0.3693 -6.977614,-4.118715 c -7.406639,-4.371959 -8.168238,-5.003218 -8.168238,-6.770315 0,-2.55796 2.503356,-4.017212 4.841785,-2.822365 0.465716,0.237963 2.989881,1.687369 5.609256,3.220902 6.450932,3.776748 7.866758,4.575165 7.955583,4.48634 0.04162,-0.04162 -0.389714,-2.574733 -0.958519,-5.629141 -2.103064,-11.29318 -1.980333,-10.354659 -1.488861,-11.385286 0.538855,-1.129991 1.858025,-1.971413 3.090755,-1.971413 1.053058,0 2.472536,0.767335 2.901213,1.568324 0.159033,0.297157 1.122265,5.155325 2.140514,10.795929 1.018249,5.640603 1.912926,10.454998 1.988171,10.698654 0.211013,0.683294 6.515002,4.29442 6.753734,3.868754 1.784965,-3.182642 6.420616,-8.198485 9.803917,-10.607984 3.864423,-2.752143 9.137972,-4.885594 13.629564,-5.513936 L 96.56483,72.584384 V 70.680107 68.77583 l -7.362072,-7.037832 c -9.707079,-9.279559 -9.57126,-9.128259 -9.57126,-10.662181 0,-1.073296 0.129162,-1.356825 1.027206,-2.25487 0.890963,-0.890963 1.186221,-1.027205 2.226108,-1.027205 1.496471,0 1.882042,0.305068 8.650096,6.844066 l 5.029922,4.859691 v -9.384626 c 0,-9.330678 0.0035,-9.389772 0.603254,-10.279795 1.086844,-1.612766 2.988226,-2.034343 4.638186,-1.028387 1.58148,0.964199 1.63773,1.361122 1.63773,11.556564 v 9.199092 l 3.50573,-3.448087 c 1.92815,-1.896448 4.66124,-4.543935 6.07354,-5.883303 2.55651,-2.424496 2.57382,-2.435215 3.93373,-2.435215 1.23389,0 1.4652,0.09928 2.39312,1.027205 0.86583,0.865827 1.02721,1.201098 1.02721,2.134061 0,0.60877 -0.11333,1.318616 -0.25185,1.577436 -0.13851,0.258819 -3.94851,4.016411 -8.46666,8.350204 l -8.21482,7.879624 v 1.895671 1.895671 l 2.3151,0.348959 c 4.79001,0.722005 10.41028,3.042801 14.09261,5.819304 2.42428,1.827933 5.94509,5.5751 7.76231,8.26137 l 1.54248,2.280133 3.15482,-1.852265 c 2.11691,-1.242886 3.19901,-2.036553 3.28913,-2.412425 0.0739,-0.308087 0.96095,-5.05257 1.97127,-10.543295 1.01033,-5.490724 2.02177,-10.340506 2.24764,-10.777291 0.94338,-1.824294 3.7062,-2.11919 5.26255,-0.561711 0.74282,0.743368 0.8253,0.983751 0.80423,2.343977 -0.0129,0.833614 -0.64279,4.715623 -1.39974,8.626686 -0.75694,3.911063 -1.34169,7.136375 -1.29944,7.167359 0.0423,0.03098 3.29151,-1.826193 7.22058,-4.127061 8.11327,-4.75115 8.57217,-4.902469 10.29095,-3.393358 1.46538,1.286621 1.58066,3.25868 0.26726,4.572078 -0.35915,0.359153 -3.69619,2.465656 -7.41564,4.681117 l -6.76263,4.028111 1.01941,0.456406 c 0.56068,0.251024 3.57785,1.432565 6.70483,2.625646 3.12697,1.193081 5.97271,2.312925 6.32388,2.488541 0.90489,0.452535 1.60833,1.733171 1.60949,2.930117 8.1e-4,0.836602 -0.18644,1.210739 -1.02622,2.050521 -1.61768,1.61768 -1.86728,1.567812 -12.89444,-2.576149 l -9.58859,-3.603354 -3.60589,2.050076 c -2.56884,1.460478 -3.56385,2.159639 -3.4597,2.431035 0.0804,0.209527 0.39718,1.593111 0.70395,3.074632 0.78997,3.815087 0.78128,10.047017 -0.0194,13.938467 -0.5683,2.7619 -2.329,7.74051 -2.6642,7.53335 -0.0965,-0.0596 -0.31281,0.19308 -0.48072,0.56159 -0.24095,0.52884 -0.23517,0.63446 0.0275,0.50125 0.18301,-0.0928 0.10162,0.0187 -0.18085,0.24773 -0.28248,0.22907 -0.40154,0.42028 -0.26459,0.42491 0.13696,0.005 0.0179,0.18322 -0.26458,0.39687 -0.28247,0.21366 -0.40855,0.38846 -0.28016,0.38846 0.12839,0 0.002,0.18743 -0.28016,0.4165 -0.28247,0.22907 -0.335,0.3378 -0.11671,0.24162 0.21828,-0.0962 0.0992,0.0839 -0.26459,0.40022 -0.3638,0.31629 -0.48286,0.49215 -0.26458,0.39079 0.21828,-0.10135 0.0397,0.13505 -0.39688,0.52535 -0.43656,0.3903 -0.64812,0.63644 -0.47013,0.54699 0.17799,-0.0895 -0.38066,0.57747 -1.24144,1.48206 -0.86078,0.90459 -1.54219,1.76743 -1.51424,1.91742 0.0279,0.14999 -0.11061,0.27812 -0.3079,0.28474 -0.19729,0.007 -0.8986,0.60733 -1.55846,1.33494 -0.65986,0.7276 -1.05027,1.08479 -0.86757,0.79375 0.18269,-0.29104 -0.11017,-0.0529 -0.65079,0.52917 -0.54063,0.58208 -0.90292,0.87973 -0.8051,0.66145 0.0978,-0.21828 -0.099,-0.0746 -0.43732,0.3192 -0.80488,0.93686 -4.29765,2.91788 -6.96371,3.94967 -2.55033,0.98699 -6.74126,2.08113 -7.97143,2.08113 H 103.444 v 1.93278 1.93278 l 8.08463,7.63405 c 4.44654,4.19874 8.25654,7.96651 8.46666,8.37284 0.54767,1.05906 0.47218,2.14053 -0.22121,3.16947 -0.71821,1.06575 -1.59243,1.55512 -2.78758,1.56043 -1.50394,0.007 -1.32516,0.14879 -9.13696,-7.26248 -2.30638,-2.18813 -4.27091,-4.00824 -4.36562,-4.0447 -0.0947,-0.0365 -0.13597,3.77353 -0.0917,8.46666 0.0506,5.3597 -0.0216,8.88324 -0.19399,9.47485 -0.51519,1.76763 -2.36345,2.80676 -4.119878,2.31628 z m 5.027088,-40.29335 c 3.21494,-0.52421 4.85547,-1.04066 7.67291,-2.4155 11.58329,-5.65236 17.305,-18.57843 13.864,-31.320552 -2.41546,-8.944533 -9.56592,-16.012281 -18.66042,-18.444559 -2.289,-0.612181 -3.13528,-0.700409 -6.84524,-0.713637 -3.53902,-0.01262 -4.618447,0.08188 -6.581391,0.57618 -13.730822,3.457629 -22.165841,16.332877 -19.884099,30.351168 2.363503,14.52061 15.95167,24.32831 30.43424,21.9669 z"
         id="path3" /><path
         style="fill:#0f2f48"
         d="m 140.84426,157.74825 c -1.07688,-0.47634 -2.93312,-2.15748 -3.41844,-3.09597 -0.51198,-0.99007 -0.47592,-2.33251 0.085,-3.16496 0.64939,-0.96369 11.22278,-12.9944 13.17599,-14.99202 1.50697,-1.54123 1.69633,-1.65303 2.78546,-1.64456 0.94106,0.007 1.47767,0.22796 2.75608,1.13323 0.87312,0.61828 1.81896,1.55249 2.10185,2.07603 0.91672,1.69651 0.59819,2.18791 -7.12937,10.99849 -3.85871,4.39952 -7.28265,8.17169 -7.60875,8.3826 -0.93364,0.60386 -1.84641,0.70589 -2.74784,0.30716 z m -14.26688,-16.53906 c -4.21039,-4.125 -7.68825,-7.58229 -7.72857,-7.68286 -0.0403,-0.10057 0.61453,-0.72664 1.45521,-1.39126 3.45719,-2.73315 6.42685,-6.10461 8.7585,-9.94352 l 1.2904,-2.12457 8.5721,6.07667 c 4.71466,3.34216 8.71354,6.21998 8.88642,6.39514 0.24373,0.24696 -0.87667,1.6853 -4.98832,6.40391 -2.91646,3.34697 -6.04241,6.91365 -6.94657,7.92595 l -1.64392,1.84054 z M 96.432539,127.05864 c -6.686382,-1.30936 -12.080805,-5.11209 -15.297198,-10.78358 -1.897371,-3.34566 -2.608838,-5.8136 -2.764902,-9.59093 -0.152354,-3.68754 0.18724,-6.01296 1.30546,-8.939321 2.498784,-6.539269 8.357323,-11.639617 15.301432,-13.321176 2.769336,-0.670612 7.349969,-0.612572 10.172179,0.12889 4.33374,1.138577 8.74779,3.892725 11.44263,7.139626 1.65752,1.997078 3.81995,6.24099 4.45266,8.738661 2.59561,10.24637 -2.89314,21.10074 -12.77064,25.2548 -3.53041,1.48474 -8.392342,2.04848 -11.841621,1.37303 z m -7.155378,-22.94678 c 0.396657,-0.31201 1.110351,-1.41333 1.585987,-2.44739 1.15813,-2.517833 2.619914,-4.099024 4.894459,-5.294263 1.284564,-0.675019 1.90988,-1.168236 2.015707,-1.589883 1.108594,-4.41699 -5.029511,-4.665053 -9.553866,-0.386107 -3.106037,2.93756 -4.160995,7.576493 -2.198148,9.665843 0.761099,0.81016 2.261427,0.83403 3.255861,0.0518 z"
         id="path2" /></g></g></svg>
